<svg width="100" height="11" viewBox="0 0 100 11" fill="none" xmlns="http://www.w3.org/2000/svg">
<g clip-path="url(#clip0_12_9)">
<path d="M19.8932 8.42318V7.1473C19.8932 7.1473 21.4976 7.1603 21.7738 7.1473C22.0436 7.12781 22.1953 6.90361 21.997 6.6415C21.7998 6.38481 20.4912 4.62262 20.1824 4.21538C19.7816 3.676 19.7285 2.07845 21.3459 2.07845H25.351V3.35432H23.3588C23.3588 3.35432 23.0695 3.53195 23.2136 3.76157C23.3588 3.98468 24.9632 6.1227 25.1538 6.3978C25.351 6.67399 25.351 7.1798 25.351 7.29244C25.351 7.40508 25.0942 8.44268 24.1539 8.42318C23.2136 8.41018 19.8921 8.42318 19.8921 8.42318M27.4895 2.07736H33.0004V3.35324H30.1794V4.70169H33.0004V5.94399H30.1794V7.11481H33.0004V8.42318H27.4895V2.07736ZM35.3815 8.42318V2.07736H38.2621L40.9184 6.06205V2.07736H42.148V8.42318H39.2675L36.6111 4.406V8.42318H35.3815ZM44.384 8.42318V2.07736H47.2711L49.9274 6.06205V2.07736H51.157V8.42318H48.2699L45.6136 4.406V8.42318H44.384ZM63.9684 2.07736H69.4793V3.35324H66.6584V4.70169H69.4793V5.94399H66.6584V7.11481H69.4793V8.42318H63.9684V2.07736ZM84.4011 2.07736H89.9055V3.35324H87.091V4.70169H89.9055V5.94399H87.091V7.11481H89.9055V8.42318H84.4011V2.07736ZM76.8319 8.42318V7.1473C76.8319 7.1473 78.4363 7.1603 78.7126 7.1473C78.9888 7.12781 79.134 6.90361 78.9357 6.6415C78.7451 6.38481 77.4364 4.62262 77.1277 4.21538C76.7203 3.676 76.6737 2.07845 78.2912 2.07845H82.2897V3.35432H80.2975C80.2975 3.35432 80.0082 3.53195 80.1523 3.76157C80.2975 3.98468 81.9019 6.1227 82.0991 6.3978C82.2897 6.67399 82.2897 7.1798 82.2897 7.29244C82.2897 7.40508 82.033 8.44268 81.0926 8.42318C80.1523 8.41018 76.8308 8.42318 76.8308 8.42318M53.6822 2.07736H56.3256V4.58255H58.6276V2.07736H61.284V8.42318H58.6276V5.94399H56.3256V8.42318H53.6822V2.07736ZM71.8464 2.07736H74.6609V8.42318H71.8464V2.07736Z" fill="white"/>
<path d="M94.995 3.35324H96.7576C96.7576 3.35324 97.2906 3.4518 97.2906 4.03667C97.2906 4.58255 96.7576 4.7006 96.7576 4.7006H94.995V3.35216V3.35324ZM92.3051 8.42318H94.995V5.94399H96.1585L97.5333 8.42318H99.9989L98.5917 5.76636C98.5917 5.76636 99.8873 5.33205 99.8873 3.91861C99.8873 2.09036 97.9081 2.07736 97.9081 2.07736H92.3051V8.42318Z" fill="white"/>
<path fill-rule="evenodd" clip-rule="evenodd" d="M13.9349 9.3828H7.64831C7.58872 9.48786 7.31898 9.96767 6.89214 10.3489H14.8362V2.53118H13.9349V9.3828ZM0.91433 0.986694H6.85856C7.09581 0.624942 7.23989 0.401826 7.23989 0.401826C7.33848 0.263191 7.47714 0.138635 7.64072 0.0205787H0.013V7.81124H0.91433V0.986694ZM7.66781 0.697509L3.42657 7.21987C3.20991 7.55563 2.42016 8.32462 1.92724 8.32462H0V10.337H5.78715C6.44473 10.3175 7.11531 9.48245 7.28648 9.15319C7.28648 9.15319 11.1464 3.03807 11.3836 2.68931C11.7195 2.19651 12.5872 2.01238 13.0541 2.01238L14.8362 1.99288V0.0194956C13.6857 0.0194956 9.12164 0 9.12164 0C8.62872 0 7.93106 0.335758 7.66781 0.697509Z" fill="white"/>
</g>
<defs>
<clipPath id="clip0_12_9">
<rect width="100" height="10.35" fill="white"/>
</clipPath>
</defs>
</svg>
